<svg width="74" height="74" fill="none" xmlns="http://www.w3.org/2000/svg"><path d="M67.757 29.36c-.72 0-1.295-.575-1.295-1.294v-5.795c0-5.393-4.386-9.779-9.778-9.779H47.71l2.69 2.69c.244.244.373.575.373.92 0 .345-.13.676-.374.92a1.319 1.319 0 01-.92.374c-.345 0-.676-.144-.92-.374l-4.904-4.904a1.32 1.32 0 01-.374-.92c0-.36.13-.676.374-.92l4.89-4.904c.244-.245.574-.374.92-.374.345 0 .675.13.92.374.244.244.374.575.374.92 0 .345-.13.676-.374.92l-2.69 2.69h8.974c6.83 0 12.382 5.55 12.382 12.367v5.795c0 .72-.575 1.295-1.294 1.295z" fill="#E91629"/><path d="M39.283 69.137a1.289 1.289 0 01-1.294-1.294V39.499c0-.72.575-1.294 1.294-1.294h28.344c.72 0 1.295.575 1.295 1.294v28.344a1.29 1.29 0 01-1.295 1.294H39.283zm1.295-2.588h25.755V40.793H40.578v25.756z" fill="#161736"/><path d="M24.572 69.137c-.345 0-.676-.144-.92-.374a1.294 1.294 0 01-.374-.92c0-.345.13-.676.373-.92l2.69-2.69h-8.974C10.551 64.234 5 58.684 5 51.867v-5.795c0-.72.575-1.294 1.294-1.294.72 0 1.295.575 1.295 1.294v5.795c0 5.393 4.386 9.779 9.778 9.779h8.974l-2.69-2.69a1.294 1.294 0 01-.373-.92c0-.345.13-.675.373-.92.245-.244.576-.374.92-.374.346 0 .677.13.921.374l4.904 4.904a1.31 1.31 0 010 1.84l-4.904 4.904a1.319 1.319 0 01-.92.374z" fill="#E91629"/><path d="M6.424 7.588a1.297 1.297 0 01-1.295-1.294c0-.345.144-.676.374-.92A1.36 1.36 0 016.423 5c.346 0 .677.144.921.374.23.23.374.59.374.92 0 .345-.144.676-.374.92a1.294 1.294 0 01-.92.374zm14.179 0a1.294 1.294 0 100-2.588 1.294 1.294 0 000 2.588zm-7.09 0a1.294 1.294 0 100-2.588 1.294 1.294 0 000 2.588zm14.165 0a1.294 1.294 0 100-2.588 1.294 1.294 0 000 2.588zm7.09 0c-.345 0-.676-.143-.92-.373a1.294 1.294 0 01-.374-.92c0-.346.143-.677.373-.921.245-.23.59-.374.92-.374.346 0 .677.144.921.374.245.244.374.575.374.92 0 .345-.144.676-.374.92a1.294 1.294 0 01-.92.374zm0 21.269a1.294 1.294 0 100-2.588 1.294 1.294 0 000 2.588zm0-7.089a1.294 1.294 0 100-2.589 1.294 1.294 0 000 2.589zm0-7.09a1.294 1.294 0 100-2.588 1.294 1.294 0 000 2.588zm0 21.255c-.345 0-.676-.144-.92-.374-.23-.23-.374-.59-.374-.92 0-.346.143-.677.373-.92.245-.245.576-.375.92-.375.346 0 .677.144.921.374.245.244.374.575.374.92 0 .346-.144.676-.374.92a1.294 1.294 0 01-.92.375zm-7.09 0a1.294 1.294 0 100-2.589 1.294 1.294 0 000 2.589zm-7.075 0a1.294 1.294 0 100-2.589 1.294 1.294 0 000 2.589zm-7.09 0a1.294 1.294 0 100-2.589 1.294 1.294 0 000 2.589zm-7.089 0a1.298 1.298 0 01-1.295-1.295c0-.345.144-.675.374-.92.245-.244.576-.374.92-.374.346 0 .677.144.921.374.245.244.374.575.374.92 0 .346-.144.676-.374.92a1.294 1.294 0 01-.92.375zm0-7.076a1.294 1.294 0 100-2.588 1.294 1.294 0 000 2.588zm0-7.089a1.294 1.294 0 100-2.589 1.294 1.294 0 000 2.589zm0-7.09a1.294 1.294 0 100-2.588 1.294 1.294 0 000 2.588z" fill="#161736"/></svg>