<svg width="97" height="20" fill="none" xmlns="http://www.w3.org/2000/svg"><g clip-path="url(#clip0)" fill-rule="evenodd" clip-rule="evenodd" fill="#fff"><path d="M78.252 16.008l-.201-.172c-.491-.417-.577-1.178-.13-1.667l5.246-5.976c.42-.488 1.183-.574 1.673-.129l.201.173c.491.416.577 1.178.13 1.666l-5.246 5.976c-.42.489-1.154.546-1.673.13z"/><path opacity=".4" d="M82.462 9.228l-.102-.115-.807.92.086.1c1.385 1.379.794 2.772.476 3.261l.116-.13c.187-.215.475-.545.778-.904.317-.546.764-1.84-.547-3.132zm1.728 1.796l.218-.244c.014-.03.042-.058.057-.087-.23.258-.475.532-.707.804.174-.186.318-.344.433-.473z"/><path d="M85.2 8.38l-5.247-5.975c-.418-.49-1.183-.576-1.672-.13l-.202.172c-.49.416-.576 1.178-.13 1.666l4.426 4.999.1.115c1.312 1.308.865 2.6.534 3.146.26-.302.52-.604.764-.877.231-.272.476-.545.706-.804.231-.258.447-.502.591-.661.505-.488.577-1.163.13-1.651zm-.288 7.628l-.202-.172c-.49-.417-.576-1.178-.13-1.667l5.247-5.976c.418-.488 1.183-.574 1.672-.129l.203.173c.49.416.576 1.178.13 1.666l-5.248 5.976c-.418.489-1.153.546-1.672.13z"/><path opacity=".4" d="M89.18 9.17l-.102-.114-.807.92.087.1c1.383 1.379.793 2.772.475 3.261l.116-.13c.187-.215.475-.546.778-.905.317-.545.764-1.84-.548-3.132zm1.656 1.854l.217-.244c.014-.03.043-.058.057-.087-.23.258-.475.532-.706.804.173-.186.332-.344.432-.473z"/><path d="M91.845 8.38l-5.247-5.975c-.418-.49-1.181-.576-1.672-.13l-.201.172c-.49.417-.577 1.179-.13 1.667l4.425 4.999.1.115c1.313 1.308.866 2.6.535 3.146.259-.302.518-.604.763-.877.23-.273.476-.546.707-.804l.59-.661c.505-.488.577-1.163.13-1.651V8.38zM27.526 1.93c1.369 0 2.58.301 3.588.876 1.024.603 1.802 1.451 2.35 2.528.548 1.093.822 2.385.822 3.865 0 1.594-.317 2.987-.966 4.122-.634 1.15-1.556 1.983-2.753 2.515.62.2 1.124.66 1.542 1.336l.721 1.077c.144.245.23.474.23.718 0 .302-.114.56-.36.747a1.394 1.394 0 01-1.542.13 1.616 1.616 0 01-.534-.503l-1.181-1.954a1.694 1.694 0 00-.736-.69c-.303-.143-.692-.23-1.182-.23-1.398 0-2.594-.301-3.618-.876-1.023-.603-1.802-1.45-2.35-2.528-.547-1.106-.821-2.4-.821-3.864 0-1.48.288-2.759.822-3.865a6.05 6.05 0 012.349-2.528c1.024-.603 2.22-.876 3.62-.876h-.001zm34.524.014c.345 0 .62.144.864.445l4.137 5.115 4.123-5.115c.244-.287.547-.43.893-.43.303 0 .576.115.821.359.246.244.361.502.361.847 0 .259-.1.532-.303.776l-4.598 5.588v5.589c0 .416-.115.732-.36.976-.246.244-.548.345-.924.345-.389 0-.72-.115-.965-.345-.245-.23-.36-.545-.36-.976v-5.59l-4.57-5.602c-.202-.243-.302-.502-.302-.775 0-.316.115-.604.36-.848s.534-.36.821-.36h.002zm-18.712.115c1.528 0 2.71.374 3.561 1.149.85.747 1.283 1.824 1.283 3.19 0 1.364-.432 2.441-1.283 3.203-.85.775-2.033 1.15-3.56 1.15H39.72v4.338c0 .416-.115.733-.36.962-.245.244-.562.359-.966.359-.39-.014-.72-.13-.937-.372-.245-.245-.36-.562-.36-.964V3.28c0-.387.115-.69.346-.904.23-.202.534-.317.923-.317h4.973zm-26.595-.115c.389 0 .735.115.965.36.246.243.361.545.361.933v11.837c0 .388-.115.719-.36.963s-.563.36-.966.36c-.375 0-.692-.116-.937-.36-.245-.244-.36-.56-.36-.963V3.237c0-.388.115-.69.36-.934.245-.244.548-.36.937-.36zm38.17-.014c.29 0 .548.072.794.2.244.145.432.346.562.619l5.608 11.966c.057.187.1.345.1.532 0 .302-.13.56-.374.79a1.338 1.338 0 01-.865.316c-.203 0-.418-.058-.606-.173a1.168 1.168 0 01-.447-.532l-1.225-2.7h-7.093l-1.224 2.701c-.116.244-.26.417-.447.531-.188.115-.39.173-.62.173a1.35 1.35 0 01-.85-.316.952.952 0 01-.376-.79c0-.173.044-.36.115-.532L53.56 2.749c.114-.259.303-.474.562-.618.245-.144.504-.2.793-.2zm-49.37.028c.389 0 .734.116.965.36.245.244.36.546.36.933v10.904h5.666c.807 0 1.225.36 1.225 1.063 0 .704-.418 1.063-1.225 1.063H5.47c-.389 0-.692-.114-.908-.33-.202-.202-.317-.503-.317-.877V3.251c0-.387.115-.69.36-.933.246-.244.549-.36.938-.36zM27.496 3.97c-1.326 0-2.35.446-3.084 1.337-.735.904-1.11 2.169-1.11 3.864 0 1.695.374 2.96 1.11 3.864.734.905 1.773 1.35 3.085 1.35s2.334-.445 3.07-1.35c.735-.905 1.11-2.197 1.11-3.864 0-1.695-.375-2.96-1.11-3.864-.736-.905-1.745-1.337-3.07-1.337h-.001zm27.418.992l-2.667 5.976h5.348l-2.681-5.976zm-11.907-.877H39.72v4.668l3.287.015c1.788 0 2.696-.79 2.696-2.341 0-1.552-.909-2.342-2.696-2.342z"/></g><defs><clipPath id="clip0"><path fill="#fff" d="M0 0h97v20H0z"/></clipPath></defs></svg>