<svg width="74" height="74" fill="none" xmlns="http://www.w3.org/2000/svg"><path d="M59.167 16.477v-6.06A5.424 5.424 0 0053.75 5H10.417A5.424 5.424 0 005 10.417V34.25a5.406 5.406 0 004.858 5.36l4.072 10.572a5.418 5.418 0 007.002 3.107l25.43-9.796a15.66 15.66 0 001.349 13.905l.622.995v10.524c0 .598.485 1.083 1.084 1.083h19.5c.598 0 1.083-.485 1.083-1.083v-35.76a14.177 14.177 0 00-4.15-9.985l-6.683-6.695zm0 6.479l3.288 8.535a3.25 3.25 0 01-1.866 4.2l-1.88.726a5.42 5.42 0 00.458-2.167V22.956zm-52 11.294V10.417a3.25 3.25 0 013.25-3.25H53.75a3.25 3.25 0 013.25 3.25v6.885h-.01l.01.025V34.25c-.008.19-.033.376-.074.561l-9.923-9.924a5.78 5.78 0 00-8.342 7.992l4.23 4.621H10.418a3.25 3.25 0 01-3.25-3.25zm13.878 5.417l-7.703 2.966-1.14-2.966h8.843zm-.893 11.6a3.25 3.25 0 01-4.2-1.864l-1.828-4.753 12.931-4.983v-.007h17.822l1.409 1.535-26.134 10.072zm47.681 16.566H50.5v-8.666h17.333v8.666zm0-10.833H50.018l-.47-.75a13.51 13.51 0 01-.274-13.875 1.083 1.083 0 00-.142-1.27l-8.878-9.685a3.612 3.612 0 015.217-4.997l17.263 17.26 1.532-1.532-4.009-4.009 1.112-.433a5.417 5.417 0 003.106-6.999l-3.667-9.52 3.51 3.516a11.997 11.997 0 013.515 8.451V57z" fill="#161736"/><path d="M17.35 20.167a2.817 2.817 0 002.817-2.817v-5.2a2.817 2.817 0 00-2.817-2.817h-5.2a2.817 2.817 0 00-2.817 2.817v5.2a2.817 2.817 0 002.817 2.817h5.2zM11.5 17.35v-1.517h2.167v-2.166H11.5V12.15a.65.65 0 01.65-.65h5.2a.65.65 0 01.65.65v1.517h-2.167v2.166H18v1.517a.65.65 0 01-.65.65h-5.2a.65.65 0 01-.65-.65z" fill="#E91629"/><path d="M10.417 23.417h4.333v2.166h-4.333v-2.166zm0 6.5h4.333v2.166h-4.333v-2.166zm19.5 0h4.333v2.166h-4.333v-2.166zm-13-6.5h4.333v2.166h-4.333v-2.166zm6.5 0h4.333v2.166h-4.333v-2.166zm6.5 0h4.333v2.166h-4.333v-2.166z" fill="#161736"/><path d="M50.5 10.416h2.167v3.25H50.5v-3.25zm-4.333 0h2.166v3.25h-2.166v-3.25z" fill="#E91629"/><path d="M41.833 10.416H44v3.25h-2.167v-3.25z" fill="#161736"/><path d="M37.5 10.416h2.167v3.25H37.5v-3.25z" fill="#E91629"/><path d="M52.667 61.333h2.166V63.5h-2.166v-2.167z" fill="#161736"/></svg>