<svg width="40" height="40" fill="none" xmlns="http://www.w3.org/2000/svg"><path fill-rule="evenodd" clip-rule="evenodd" d="M.5 4.5A1.5 1.5 0 012 3h3.426a4.5 4.5 0 014.21 2.91l.79 2.092A1.52 1.52 0 0110.5 8l23.51-.02c3.207-.003 5.388 3.254 4.163 6.218l-3.869 9.366a3.5 3.5 0 01-2.609 2.107L18.728 28.03a4.5 4.5 0 01-5.015-2.837L6.83 6.97A1.5 1.5 0 005.426 6H2A1.5 1.5 0 01.5 4.5zM11.559 11l4.96 13.131a1.5 1.5 0 001.672.946l12.967-2.358a.5.5 0 00.372-.3l3.87-9.366a1.5 1.5 0 00-1.388-2.073L11.559 11z" fill="#161736"/><path d="M13.5 37a3 3 0 100-6 3 3 0 000 6zm18 0a3 3 0 100-6 3 3 0 000 6z" fill="#161736"/></svg>