<svg width="22" height="23" fill="none" xmlns="http://www.w3.org/2000/svg"><g clip-path="url(#clip0)" fill="#D71820"><path d="M16.726 14.696c-.719-.71-1.616-.71-2.33 0-.545.54-1.09 1.08-1.626 1.63-.146.151-.27.183-.448.082-.353-.192-.728-.347-1.067-.558-1.58-.993-2.902-2.27-4.074-3.708-.582-.714-1.099-1.479-1.46-2.34-.074-.174-.06-.288.082-.43.545-.526 1.076-1.067 1.611-1.607.746-.75.746-1.63-.004-2.385-.426-.43-.852-.851-1.278-1.282-.44-.44-.874-.883-1.318-1.318-.719-.7-1.616-.7-2.33.004-.55.54-1.076 1.095-1.635 1.626C.332 4.9.071 5.5.016 6.2-.07 7.34.208 8.415.602 9.464c.806 2.17 2.033 4.097 3.52 5.864 2.01 2.39 4.41 4.28 7.216 5.645 1.263.613 2.572 1.085 3.996 1.163.98.055 1.831-.193 2.514-.957.466-.522.993-.998 1.487-1.497.733-.742.737-1.64.01-2.372-.87-.874-1.745-1.744-2.62-2.614zm-.875-3.648l1.69-.289a7.55 7.55 0 00-2.11-4.074 7.51 7.51 0 00-4.304-2.147l-.238 1.698a5.826 5.826 0 013.333 1.662c.86.86 1.423 1.95 1.63 3.15zm2.642-7.343A12.456 12.456 0 0011.35.143l-.238 1.698a10.8 10.8 0 016.171 3.077 10.792 10.792 0 013.026 5.837l1.69-.289a12.547 12.547 0 00-3.507-6.761z"/></g><defs><clipPath id="clip0"><path fill="#fff" transform="translate(0 .143)" d="M0 0h22v22H0z"/></clipPath></defs></svg>