<svg width="38" height="38" fill="none" xmlns="http://www.w3.org/2000/svg"><g clip-path="url(#clip0)"><path d="M18.82 36.74l.066.06.067-.06 13.466-12.013h0c2.668-2.419 4.5-5.472 5.292-8.832.548-2.318.371-3.748.325-4.038-.56-6.144-4.914-10.622-10.383-10.622-3.584 0-6.868 1.9-8.757 4.952-1.868-3.09-5.02-4.953-8.55-4.953C4.88 1.234.524 5.712-.035 11.857c-.046.29-.222 1.72.325 4.039.793 3.358 2.624 6.412 5.292 8.83L18.819 36.74zm17.273-21.225h0c-.714 3.028-2.37 5.788-4.785 7.976 0 0 0 0 0 0L18.895 34.566 6.697 23.495h0c-2.42-2.193-4.075-4.953-4.79-7.98h0c-.495-2.094-.317-3.306-.303-3.399h0l.011-.074h0l.001-.005c.472-5.31 4.152-9.14 8.73-9.14 3.382 0 6.363 2.076 7.78 5.43l.673 1.595.093.219.092-.219.673-1.595c1.393-3.3 4.532-5.43 7.997-5.43 4.577 0 8.26 3.83 8.74 9.21h0v.004c.008.044.205 1.264-.3 3.404z" fill="#161736" stroke="#161736" stroke-width=".2"/></g><defs><clipPath id="clip0"><path fill="#fff" d="M0 0h38v38H0z"/></clipPath></defs></svg>