<svg width="39" height="39" fill="none" xmlns="http://www.w3.org/2000/svg"><path d="M20.15 5.799h10.859l-5.623 14.077a.706.706 0 00-.06.266 6.786 6.786 0 006.784 6.783c3.744 0 6.783-3.05 6.783-6.783v-.03l-.007-.017-5.737-14.286h2.712a.723.723 0 00.721-.722.723.723 0 00-.721-.721H20.149V1.865a.723.723 0 00-.722-.722.723.723 0 00-.721.722v2.49H3.005a.724.724 0 00-.722.722c0 .397.325.722.722.722H5.83L.167 19.865s0 0 0 0a.705.705 0 00-.06.267 6.786 6.786 0 006.783 6.783c3.744 0 6.783-3.05 6.783-6.783a.714.714 0 00-.06-.277s0 0 0 0L7.96 5.787h10.735V31.62l-.091.006h0-.003c-1.892.146-3.652.784-4.944 1.803h0c-1.283 1.02-1.997 2.331-1.997 3.705 0 .363.272.666.622.715v.017h14.18a.724.724 0 00.723-.722c0-1.373-.714-2.685-1.996-3.704h0c-1.293-1.02-3.043-1.658-4.946-1.804h-.002l-.092-.005V5.799zm6.665 15.076h10.543l-.021.12v.002a5.321 5.321 0 01-5.066 4.485l-.096.004v.006h-.106a5.33 5.33 0 01-5.238-4.494l-.016-.123zm-25.193.122v-.001l-.021-.121h10.548l-.021.12v.002a5.338 5.338 0 01-5.238 4.495 5.325 5.325 0 01-5.268-4.495zm11.621 15.28c.321-.922 1.122-1.73 2.22-2.307 1.097-.577 2.482-.921 3.954-.921 1.477 0 2.865.341 3.962.917 1.098.577 1.896 1.383 2.212 2.31 0 0 0 0 0 0l.05.148H13.193l.05-.147s0 0 0 0zM27.077 19.42l4.991-12.407L37.04 19.42h-9.962zm-15.206 0H1.91L6.901 7.003l4.97 12.418z" fill="#161736" stroke="#161736" stroke-width=".2"/></svg>