<svg width="74" height="74" fill="none" xmlns="http://www.w3.org/2000/svg"><path d="M68.82 33.439l-1.917-7.665a1.16 1.16 0 00.917-1.133v-1.236a4.872 4.872 0 00-4.866-4.867h-8.729V15.99a2.397 2.397 0 00-2.394-2.394H7.338a2.397 2.397 0 00-2.394 2.394V37a1.159 1.159 0 102.317 0V15.99c0-.042.034-.077.077-.077h44.493c.042 0 .077.035.077.077V37a1.159 1.159 0 002.317 0v-1.313H67.9a3.791 3.791 0 013.6 2.626h-3.603c-.64 0-1.158.519-1.158 1.159v2.471a3.634 3.634 0 003.63 3.63h1.314v5.099h-3.03c-.996-2.874-3.727-4.944-6.935-4.944-3.208 0-5.94 2.07-6.935 4.944h-.558v-8.729a1.159 1.159 0 00-2.317 0v8.729h-24.04c-.995-2.874-3.727-4.944-6.935-4.944-3.208 0-5.94 2.07-6.935 4.944h-6.66a.077.077 0 01-.077-.077v-2.55h5.02a1.159 1.159 0 100-2.317H1.16a1.159 1.159 0 000 2.317h3.785v2.55a2.397 2.397 0 002.394 2.394h6.26c-.001.026-.003.051-.003.077 0 4.047 3.292 7.338 7.338 7.338s7.338-3.291 7.338-7.338l-.002-.077h26.113l-.002.077c0 4.047 3.292 7.338 7.338 7.338s7.338-3.291 7.338-7.338l-.002-.077h3.787a1.16 1.16 0 001.159-1.159V39.472a6.112 6.112 0 00-5.18-6.033zM54.226 20.856h8.728a2.552 2.552 0 012.55 2.549v.077h-11.28v-2.626zm0 12.513V25.8H64.52l1.893 7.57H54.225zM20.932 58.087a5.027 5.027 0 01-5.02-5.02 5.027 5.027 0 015.02-5.021 5.026 5.026 0 015.021 5.02 5.027 5.027 0 01-5.02 5.021zm40.785 0a5.026 5.026 0 01-5.02-5.02 5.026 5.026 0 015.02-5.021 5.026 5.026 0 015.021 5.02 5.027 5.027 0 01-5.02 5.021zm9.965-14.83h-1.314c-.724 0-1.313-.59-1.313-1.314V40.63h2.627v2.627z" fill="#161736"/><path d="M20.933 50.672a2.397 2.397 0 00-2.395 2.395 2.397 2.397 0 002.395 2.394 2.397 2.397 0 002.395-2.394 2.397 2.397 0 00-2.395-2.395zm40.785 0a2.397 2.397 0 00-2.395 2.395 2.397 2.397 0 002.395 2.394 2.397 2.397 0 002.395-2.394 2.397 2.397 0 00-2.395-2.395z" fill="#000"/><path d="M48.123 45.729H30.821a1.159 1.159 0 100 2.317h17.302a1.159 1.159 0 000-2.317zm-29.661-4.944H3.63a1.159 1.159 0 100 2.317h14.83a1.159 1.159 0 000-2.317zm21.829-15.728a1.159 1.159 0 00-1.638 0L28.349 35.361l-5.36-5.36a1.158 1.158 0 10-1.64 1.639l6.18 6.18a1.154 1.154 0 001.639 0l11.123-11.124a1.159 1.159 0 000-1.639z" fill="#E91629"/></svg>