<svg xmlns="http://www.w3.org/2000/svg" xmlns:xlink="http://www.w3.org/1999/xlink" width="180" zoomAndPan="magnify" viewBox="0 0 135 44.999999" height="60" preserveAspectRatio="xMidYMid meet" version="1.0"><defs><g/><clipPath id="70f5f8a111"><path d="M 16.5 0.789062 L 60 0.789062 L 60 44.289062 L 16.5 44.289062 Z M 16.5 0.789062 " clip-rule="nonzero"/></clipPath></defs><g clip-path="url(#70f5f8a111)"><path fill="#ffffff" d="M 38.25 0.789062 C 26.257812 0.789062 16.5 10.542969 16.5 22.539062 C 16.5 34.53125 26.257812 44.289062 38.25 44.289062 C 50.242188 44.289062 60 34.53125 60 22.539062 C 60 10.542969 50.242188 0.789062 38.25 0.789062 Z M 38.929688 12.523438 C 41.714844 12.449219 44.835938 12.140625 48.207031 11.449219 C 49.417969 14.394531 50.097656 17.894531 50.203125 21.855469 L 38.929688 21.855469 Z M 38.929688 11.160156 L 38.929688 2.226562 C 39.746094 2.460938 41.996094 3.269531 44.273438 5.480469 C 45.613281 6.785156 46.734375 8.355469 47.628906 10.171875 C 44.472656 10.804688 41.550781 11.089844 38.929688 11.160156 Z M 37.570312 11.179688 C 35.171875 11.179688 33.0625 11.003906 31.304688 10.761719 C 30.40625 10.640625 29.566406 10.5 28.785156 10.34375 C 29.683594 8.484375 30.808594 6.871094 32.164062 5.542969 C 34.445312 3.300781 36.742188 2.46875 37.570312 2.226562 Z M 31.058594 12.109375 C 32.886719 12.359375 35.074219 12.542969 37.570312 12.542969 L 37.570312 21.855469 L 26.296875 21.855469 C 26.402344 17.976562 27.054688 14.535156 28.222656 11.625 C 29.089844 11.800781 30.035156 11.96875 31.058594 12.109375 Z M 24.9375 21.855469 L 17.878906 21.855469 C 18.027344 17.351562 19.644531 13.210938 22.265625 9.902344 C 23.019531 10.207031 24.59375 10.789062 26.875 11.332031 C 25.492188 14.886719 25.023438 18.675781 24.9375 21.855469 Z M 24.925781 23.21875 C 24.957031 27.4375 25.660156 30.796875 26.691406 33.460938 C 25.164062 33.824219 23.589844 34.261719 21.972656 34.796875 C 19.523438 31.550781 18.019531 27.554688 17.878906 23.21875 Z M 26.285156 23.21875 L 37.570312 23.21875 L 37.570312 32.03125 C 34.714844 32.105469 31.507812 32.429688 28.035156 33.160156 C 26.90625 30.324219 26.3125 26.984375 26.285156 23.21875 Z M 37.570312 33.394531 L 37.570312 42.535156 C 36.472656 42.195312 34.386719 41.359375 32.3125 39.480469 C 30.792969 38.109375 29.550781 36.414062 28.59375 34.4375 C 31.859375 33.769531 34.875 33.46875 37.570312 33.394531 Z M 38.929688 33.378906 C 41.328125 33.378906 43.4375 33.554688 45.195312 33.792969 C 46.199219 33.929688 47.132812 34.09375 47.984375 34.265625 C 47.03125 36.292969 45.78125 38.023438 44.246094 39.429688 C 42.160156 41.335938 40.042969 42.1875 38.929688 42.53125 Z M 45.441406 32.449219 C 43.613281 32.199219 41.421875 32.015625 38.929688 32.011719 L 38.929688 23.21875 L 50.214844 23.21875 C 50.1875 26.90625 49.617188 30.1875 48.535156 32.984375 C 47.597656 32.789062 46.566406 32.605469 45.441406 32.449219 Z M 51.574219 23.21875 L 58.621094 23.21875 C 58.480469 27.546875 56.980469 31.539062 54.539062 34.78125 C 53.996094 34.546875 52.382812 33.898438 49.875 33.289062 C 51.15625 29.875 51.550781 26.273438 51.574219 23.21875 Z M 51.5625 21.855469 C 51.476562 18.625 50.992188 14.761719 49.554688 11.15625 C 51.058594 10.804688 52.613281 10.378906 54.203125 9.863281 C 56.84375 13.179688 58.472656 17.332031 58.621094 21.855469 Z M 53.242188 8.742188 C 51.792969 9.195312 50.378906 9.570312 49.003906 9.882812 C 48.082031 7.933594 46.851562 6.089844 45.222656 4.507812 C 44.476562 3.78125 43.730469 3.195312 43.027344 2.71875 C 47.015625 3.679688 50.550781 5.816406 53.242188 8.742188 Z M 33.472656 2.71875 C 32.769531 3.195312 32.023438 3.78125 31.277344 4.507812 C 29.601562 6.136719 28.347656 8.039062 27.417969 10.054688 C 25.480469 9.601562 24.042969 9.117188 23.203125 8.800781 C 25.902344 5.847656 29.457031 3.6875 33.472656 2.71875 Z M 22.894531 35.933594 C 24.378906 35.457031 25.828125 35.0625 27.234375 34.734375 C 28.453125 37.363281 29.988281 39.214844 31.398438 40.492188 C 32.347656 41.347656 33.296875 42.007812 34.171875 42.511719 C 29.714844 41.605469 25.78125 39.234375 22.894531 35.933594 Z M 42.328125 42.511719 C 43.203125 42.007812 44.152344 41.347656 45.101562 40.492188 C 47.003906 38.769531 48.371094 36.726562 49.347656 34.566406 C 51.441406 35.066406 52.914062 35.601562 53.640625 35.890625 C 50.753906 39.214844 46.804688 41.601562 42.328125 42.511719 Z M 42.328125 42.511719 " fill-opacity="1" fill-rule="nonzero"/></g><g fill="#ffffff" fill-opacity="1"><g transform="translate(64.323873, 25.874998)"><g><path d="M 2.054688 0 L 3.949219 0 L 6.699219 -4.527344 C 7.023438 -4.996094 7.191406 -5.542969 7.191406 -6.152344 C 7.191406 -7.914062 5.703125 -9.328125 3.851562 -9.328125 C 1.90625 -9.328125 0.496094 -7.804688 0.496094 -6.101562 C 0.496094 -4.320312 2.015625 -3.023438 3.835938 -3.023438 L 4.039062 -3.023438 Z M 3.835938 -4.449219 C 2.894531 -4.449219 2.105469 -5.195312 2.105469 -6.113281 C 2.105469 -7.03125 2.894531 -7.777344 3.835938 -7.777344 C 4.800781 -7.777344 5.582031 -7.03125 5.582031 -6.113281 C 5.582031 -5.195312 4.800781 -4.449219 3.835938 -4.449219 Z M 3.835938 -4.449219 "/></g></g></g><g fill="#ffffff" fill-opacity="1"><g transform="translate(73.245475, 25.874998)"><g><path d="M 1.328125 0 L 3.148438 0 L 7.226562 -8.351562 L 7.226562 -9.191406 L 0.59375 -9.191406 L 0.59375 -7.6875 L 5.230469 -7.6875 Z M 1.328125 0 "/></g></g></g><g fill="#ffffff" fill-opacity="1"><g transform="translate(82.167078, 25.874998)"><g><path d="M 3.863281 0.128906 C 5.605469 0.128906 7.257812 -0.773438 7.257812 -2.652344 C 7.257812 -3.648438 6.796875 -4.460938 5.925781 -4.96875 C 6.457031 -5.425781 6.796875 -6.074219 6.796875 -6.835938 C 6.796875 -8.402344 5.378906 -9.328125 3.863281 -9.328125 C 2.347656 -9.328125 0.929688 -8.417969 0.929688 -6.824219 C 0.929688 -6.101562 1.230469 -5.449219 1.800781 -4.96875 C 0.988281 -4.488281 0.46875 -3.675781 0.46875 -2.640625 C 0.46875 -0.785156 2.105469 0.128906 3.863281 0.128906 Z M 3.890625 -5.582031 C 3.078125 -5.582031 2.554688 -6.0625 2.554688 -6.789062 C 2.554688 -7.578125 3.175781 -7.953125 3.890625 -7.953125 C 4.648438 -7.953125 5.222656 -7.523438 5.222656 -6.765625 C 5.222656 -6.007812 4.664062 -5.582031 3.890625 -5.582031 Z M 3.851562 -1.28125 C 2.894531 -1.28125 2.082031 -1.742188 2.082031 -2.730469 C 2.082031 -3.660156 2.824219 -4.183594 3.851562 -4.183594 C 4.863281 -4.183594 5.621094 -3.660156 5.621094 -2.71875 C 5.621094 -1.742188 4.820312 -1.28125 3.851562 -1.28125 Z M 3.851562 -1.28125 "/></g></g></g><g fill="#ffffff" fill-opacity="1"><g transform="translate(91.088681, 25.874998)"><g/></g></g><g fill="#ffffff" fill-opacity="1"><g transform="translate(95.486113, 25.874998)"><g><path d="M 4.488281 0.128906 C 6.953125 0.128906 8.007812 -1.332031 8.007812 -3.648438 L 8.007812 -9.191406 L 6.355469 -9.191406 L 6.355469 -3.773438 C 6.355469 -2.289062 5.96875 -1.464844 4.488281 -1.464844 C 3.011719 -1.464844 2.621094 -2.289062 2.621094 -3.773438 L 2.621094 -9.191406 L 0.976562 -9.191406 L 0.976562 -3.582031 C 0.976562 -1.332031 2.023438 0.128906 4.488281 0.128906 Z M 4.488281 0.128906 "/></g></g></g><g fill="#ffffff" fill-opacity="1"><g transform="translate(105.655761, 25.874998)"><g><path d="M 0.078125 0 L 1.878906 0 L 2.59375 -1.996094 L 6.164062 -1.996094 L 6.875 0 L 8.65625 0 L 4.996094 -9.191406 L 3.757812 -9.191406 Z M 3.15625 -3.40625 L 4.382812 -6.765625 L 5.605469 -3.40625 Z M 3.15625 -3.40625 "/></g></g></g></svg>