<svg width="74" height="74" fill="none" xmlns="http://www.w3.org/2000/svg"><path d="M32.95 22.005l-.676-8.127a1.025 1.025 0 00-1.022-.94h-1.025v-1.026a3.08 3.08 0 00-3.077-3.076 3.08 3.08 0 00-3.076 3.076v1.026H23.05c-.527 0-.968.399-1.02.923l-.82 8.203a1.025 1.025 0 001.02 1.127h9.709a1.025 1.025 0 001.013-1.186zm-6.825-10.093a1.027 1.027 0 012.05 0v1.026h-2.05v-1.026zm-2.764 9.229l.616-6.153h6.331l.513 6.153h-7.46z" fill="#E91629"/><path d="M60.16 11.126a.879.879 0 00-.01-.074l-.005-.026a.99.99 0 00-.021-.085l-.003-.011a1.094 1.094 0 00-.03-.085l-.004-.01a.892.892 0 00-.036-.077l-.007-.013a1.047 1.047 0 00-.04-.069l-.012-.018a1.063 1.063 0 00-.045-.061l-.014-.02a1.01 1.01 0 00-.068-.074l-8.202-8.202a1.057 1.057 0 00-.075-.068c-.006-.006-.014-.01-.02-.015a.993.993 0 00-.06-.045l-.02-.012a1.011 1.011 0 00-.066-.04l-.016-.007a1.039 1.039 0 00-.075-.036l-.011-.003a.987.987 0 00-.084-.03l-.012-.003a1.042 1.042 0 00-.084-.022l-.027-.004A.996.996 0 0050.938 2H14.025C13.46 2 13 2.46 13 3.025v61.999c0 .566.46 1.025 1.025 1.025h23.242a1.025 1.025 0 100-2.05H15.051V4.05h34.861v7.177c0 .566.46 1.026 1.026 1.026h7.177v51.745h-5.809a1.025 1.025 0 000 2.05h6.834c.566 0 1.026-.459 1.026-1.025V11.228a.99.99 0 00-.006-.102zm-8.197-.923V5.5l4.702 4.702h-4.702z" fill="#161736"/><path d="M50.938 31.189h-28.71a1.025 1.025 0 100 2.05h28.71a1.025 1.025 0 100-2.05zm0 5.469h-28.71a1.026 1.026 0 000 2.051h28.71a1.025 1.025 0 100-2.05zm0 5.469h-28.71a1.025 1.025 0 100 2.05h28.71a1.025 1.025 0 100-2.05zm-16.406 5.469H22.228a1.026 1.026 0 000 2.05h12.304a1.025 1.025 0 000-2.05z" fill="#161736"/><path d="M51.965 57.508c0-3.958-3.22-7.178-7.178-7.178-3.958 0-7.178 3.22-7.178 7.178 0 2.28 1.07 4.315 2.735 5.63v7.837l.001.032.004.063c0 .014.003.029.005.043.003.019.005.038.009.056a.88.88 0 00.01.046l.014.051a.45.45 0 00.016.048c.005.016.01.031.017.047l.021.048.02.042.03.05.022.037c.011.017.024.034.036.05l.02.027c0 .002.002.003.004.005a.95.95 0 00.073.082l.023.02a.705.705 0 00.058.051l.037.028a1.083 1.083 0 00.185.108c.021.01.043.018.064.026.012.005.023.01.035.013a.94.94 0 00.075.02l.03.008c.027.006.055.01.084.014l.023.004c.034.004.068.005.102.006h.011c.05 0 .099-.005.147-.012l.03-.005a.935.935 0 00.143-.036l.025-.01a.952.952 0 00.142-.062l.005-.003c.048-.027.093-.057.136-.09l.009-.007 2.777-2.222 2.778 2.222c.002.003.006.004.008.006.043.034.089.064.136.091.002 0 .003.002.005.003a.999.999 0 00.142.063l.025.009c.046.015.094.027.143.036l.03.005c.048.007.097.012.147.012h.011a.847.847 0 00.102-.006c.008 0 .016-.003.023-.004a.793.793 0 00.085-.014l.03-.007a.981.981 0 00.074-.021l.035-.013a1.138 1.138 0 00.159-.075.963.963 0 00.09-.06c.013-.009.026-.017.038-.027l.058-.05.022-.022a.992.992 0 00.074-.081c0-.002.003-.003.004-.005l.02-.027.036-.05.022-.037.029-.05.02-.042.022-.048.017-.047.016-.048a.832.832 0 00.013-.05c.004-.016.008-.031.01-.047l.01-.056.005-.044c.002-.02.002-.041.003-.062l.002-.033V63.14a7.168 7.168 0 002.733-5.63zm-6.523 9.943l-.014-.011-.023-.017a.952.952 0 00-.056-.04l-.033-.02c-.018-.01-.035-.021-.053-.03a.836.836 0 00-.042-.02c-.016-.008-.031-.016-.047-.022l-.05-.018a.88.88 0 00-.097-.029l-.042-.01a.96.96 0 00-.148-.017.972.972 0 00-.151.004c-.013 0-.026.003-.038.004a1.105 1.105 0 00-.096.018l-.06.016-.038.012a1.008 1.008 0 00-.055.02l-.043.02-.046.022c-.017.009-.034.02-.05.03l-.036.02-.055.04-.023.017-.014.011-1.737 1.39v-4.566a7.144 7.144 0 004.784 0v4.566l-1.737-1.39zm-.655-4.816a5.133 5.133 0 01-5.127-5.127c0-2.827 2.3-5.127 5.127-5.127s5.127 2.3 5.127 5.127-2.3 5.127-5.127 5.127z" fill="#E91629"/><path d="M44.787 54.432a3.08 3.08 0 00-3.076 3.076 3.08 3.08 0 003.076 3.076 3.08 3.08 0 003.076-3.076 3.08 3.08 0 00-3.076-3.076zm0 4.101a1.027 1.027 0 010-2.05 1.026 1.026 0 010 2.05z" fill="#E91629"/></svg>