<svg width="22" height="22" fill="none" xmlns="http://www.w3.org/2000/svg"><g clip-path="url(#clip0)" fill="#fff"><path d="M20.59 3.949H1.41a1.41 1.41 0 110-2.82h19.18a1.41 1.41 0 110 2.82zm-7.898 8.461H1.41a1.41 1.41 0 110-2.82h11.282a1.41 1.41 0 110 2.82z"/><path d="M20.59 12.41h-2.257a1.41 1.41 0 110-2.82h2.257a1.41 1.41 0 110 2.82z" fill-opacity=".35"/><path d="M20.59 20.872H1.41a1.41 1.41 0 110-2.82h19.18a1.41 1.41 0 110 2.82z"/></g><defs><clipPath id="clip0"><path fill="#fff" d="M0 0h22v22H0z"/></clipPath></defs></svg>