<svg width="40" height="40" fill="none" xmlns="http://www.w3.org/2000/svg"><g clip-path="url(#clip0)" fill="#161736"><path d="M12.76 31.113a4.176 4.176 0 100 8.352 4.176 4.176 0 000-8.352zm0 6.496a2.32 2.32 0 110-4.64 2.32 2.32 0 010 4.64zm17.632-6.496a4.176 4.176 0 100 8.352 4.176 4.176 0 000-8.352zm0 6.496a2.32 2.32 0 110-4.64 2.32 2.32 0 010 4.64zM39.81 6.753a1.16 1.16 0 00-.742-.371L8.863 5.964l-.835-2.552A4.269 4.269 0 004.037.535H.928a.928.928 0 100 1.856h3.109a2.413 2.413 0 012.227 1.624l5.893 17.771-.464 1.068a4.454 4.454 0 00.417 4.036 4.315 4.315 0 003.48 1.95h18.05a.928.928 0 100-1.857H15.59a2.366 2.366 0 01-1.948-1.114 2.552 2.552 0 01-.232-2.227l.37-.835 19.535-2.041a5.104 5.104 0 004.408-3.898l2.227-9.326a.789.789 0 00-.14-.789zm-3.897 9.697a3.155 3.155 0 01-2.83 2.46l-19.302 1.995L9.466 7.82l28.442.418-1.995 8.212z"/></g><defs><clipPath id="clip0"><path fill="#fff" d="M0 0h40v40H0z"/></clipPath></defs></svg>