<svg width="56" height="20" fill="none" xmlns="http://www.w3.org/2000/svg"><path d="M24.433 18.352h-4.335l2.711-16.65h4.335l-2.711 16.65zM40.147 2.11c-.855-.338-2.211-.71-3.888-.71-4.281 0-7.296 2.268-7.314 5.509-.035 2.391 2.158 3.72 3.8 4.517 1.676.815 2.246 1.347 2.246 2.073-.017 1.115-1.355 1.63-2.603 1.63-1.73 0-2.658-.266-4.067-.886l-.57-.266-.608 3.737c1.017.46 2.89.869 4.835.886 4.548 0 7.51-2.232 7.545-5.686.017-1.895-1.142-3.347-3.639-4.534-1.516-.762-2.445-1.276-2.445-2.055.018-.709.786-1.435 2.497-1.435a7.415 7.415 0 013.23.638l.391.177.59-3.596zm5.761 10.344c.357-.957 1.73-4.659 1.73-4.659-.018.036.357-.974.57-1.594l.304 1.435s.82 3.985.999 4.818h-3.603zm5.35-10.752h-3.352c-1.034 0-1.82.301-2.266 1.382L39.2 18.352h4.548s.75-2.055.91-2.498h5.566c.124.585.517 2.498.517 2.498h4.014l-3.498-16.65zm-34.781 0l-4.245 11.354-.464-2.303c-.784-2.657-3.246-5.544-5.993-6.979l3.889 14.56h4.584L21.06 1.702h-4.584z" fill="#fff"/><path d="M8.29 1.702H1.316l-.071.337c5.44 1.381 9.043 4.712 10.523 8.715l-1.516-7.652c-.25-1.064-1.017-1.365-1.962-1.4z" fill="#fff"/></svg>