<svg width="30" height="30" fill="none" xmlns="http://www.w3.org/2000/svg"><path d="M20.39 7.85l-2.171-3.72a.769.769 0 00-1.057-.271L10.525 7.84l9.865.01z" fill="#D7000F"/><path d="M5.795 8.863c-.562 0-1.022-.46-1.022-1.022 0-.563.46-1.023 1.022-1.023h3.447l3.416-2.046H5.795A3.066 3.066 0 002.778 7.33c-.02.082-.05.164-.05.256v15.597a3.077 3.077 0 003.067 3.068h17.387a2.05 2.05 0 002.045-2.046V22.16h-2.556a4.61 4.61 0 01-4.603-4.602 4.61 4.61 0 014.602-4.603h2.557V10.91c0-1.125-.92-2.046-2.045-2.046H5.795zM22.16 6.818a2.042 2.042 0 00-1.77-2.025l1.77 3.048V6.818z" fill="#D7000F"/><path d="M26.506 14.49H22.67a3.072 3.072 0 00-3.069 3.067 3.072 3.072 0 003.069 3.069h3.835a.767.767 0 00.767-.767v-4.603a.767.767 0 00-.767-.767zm-3.835 4.09a1.023 1.023 0 110-2.046 1.023 1.023 0 010 2.046z" fill="#D7000F"/></svg>