<svg width="30" height="30" fill="none" xmlns="http://www.w3.org/2000/svg"><path d="M2.727 6.673v16.654h17.179v-2.74a3.013 3.013 0 01-.695-3.628H7.585v-1.438h13.196a3.024 3.024 0 014.142 2.803c0 .9-.396 1.709-1.022 2.263v2.74h3.372V6.673H2.727zm8.903 11.699v1.438H7.585v-1.438h4.045zm-.465-8.645h7.67v1.438h-7.67V9.727zm11.25 4.335H7.585v-1.438h14.83v1.438z" fill="#D7000F"/><path d="M21.904 21.344c-.191 0-.378-.019-.56-.053v1.683h1.12V21.29a3.024 3.024 0 01-.56.053zm0-4.601c-.873 0-1.582.71-1.582 1.582 0 .872.71 1.582 1.582 1.582.872 0 1.582-.71 1.582-1.582 0-.873-.71-1.582-1.582-1.582z" fill="#D7000F"/></svg>