<svg width="40" height="40" fill="none" xmlns="http://www.w3.org/2000/svg"><path fill-rule="evenodd" clip-rule="evenodd" d="M5.697 8.863C7.307 6.96 9.654 5.832 12.5 5.832c1.905 0 3.73 1.043 5.13 2.103A21.984 21.984 0 0120 10.037a21.983 21.983 0 012.369-2.102c1.401-1.06 3.225-2.103 5.13-2.103 2.897 0 5.244 1.252 6.832 3.231 1.56 1.946 2.335 4.521 2.335 7.186 0 2.405-1.185 4.714-2.677 6.703-1.514 2.02-3.497 3.91-5.422 5.514a62.982 62.982 0 01-5.3 3.935 62.378 62.378 0 01-2.241 1.427l-.135.08-.036.021-.01.006-.004.002s-.002.001-.841-1.438l-.84 1.439-.005-.003-.01-.006-.037-.021a26.338 26.338 0 01-.632-.385 60.229 60.229 0 01-1.748-1.13 61.03 61.03 0 01-5.304-3.975c-1.927-1.628-3.911-3.552-5.426-5.622-1.496-2.045-2.665-4.409-2.665-6.88 0-2.668.779-5.18 2.364-7.053zM20 32.5l-.84 1.439.84.49.84-.49-.84-1.44zm0-1.954a57.04 57.04 0 001.419-.918 59.75 59.75 0 005.014-3.721c1.824-1.52 3.591-3.223 4.89-4.954 1.32-1.762 2.01-3.36 2.01-4.703 0-2.05-.6-3.85-1.603-5.1-.976-1.217-2.378-1.984-4.23-1.984-.777 0-1.863.478-3.121 1.429-1.202.908-2.32 2.063-3.114 2.99L20 15.059l-1.265-1.475c-.796-.927-1.913-2.082-3.115-2.99-1.258-.951-2.343-1.429-3.12-1.429-1.903 0-3.306.725-4.258 1.851-.979 1.157-1.576 2.855-1.576 4.9 0 1.445.706 3.112 2.022 4.911 1.298 1.774 3.065 3.505 4.887 5.044a57.664 57.664 0 005.009 3.754c.56.375 1.043.686 1.416.92z" fill="#161736"/></svg>